<?xml version="1.0" encoding="utf-8"?>
<!-- Generator: Adobe Illustrator 16.0.0, SVG Export Plug-In . SVG Version: 6.00 Build 0)  -->
<!DOCTYPE svg PUBLIC "-//W3C//DTD SVG 1.1//EN" "http://www.w3.org/Graphics/SVG/1.1/DTD/svg11.dtd">
<svg version="1.1" id="Layer_1" xmlns="http://www.w3.org/2000/svg" xmlns:xlink="http://www.w3.org/1999/xlink" x="0px" y="0px"
	 width="140px" height="32px" viewBox="0 0 140 32" enable-background="new 0 0 140 32" xml:space="preserve">
<g>
	<g>
		<path fill="#FFFFFF" d="M9.577,7.14C8.929,7.673,8.605,8.378,8.605,9.256s0.396,1.575,1.187,2.094
			c0.792,0.518,2.619,1.13,5.483,1.835c2.864,0.706,5.088,1.764,6.671,3.173c1.583,1.41,2.375,3.469,2.375,6.174
			c0,2.707-1.015,4.901-3.043,6.585c-2.029,1.684-4.7,2.525-8.009,2.525c-4.778,0-9.082-1.771-12.91-5.311l4.015-4.922
			c3.253,2.85,6.261,4.273,9.024,4.273c1.237,0,2.209-0.265,2.915-0.798c0.705-0.532,1.057-1.253,1.057-2.159
			s-0.374-1.626-1.122-2.159c-0.749-0.531-2.231-1.071-4.447-1.619c-3.512-0.834-6.081-1.921-7.707-3.259
			c-1.626-1.338-2.439-3.439-2.439-6.303c0-2.864,1.029-5.073,3.087-6.627c2.058-1.555,4.626-2.332,7.707-2.332
			c2.014,0,4.029,0.345,6.044,1.036c2.014,0.691,3.771,1.67,5.268,2.936l-3.411,4.922c-2.62-1.986-5.326-2.979-8.117-2.979
			C11.11,6.342,10.224,6.608,9.577,7.14z"/>
		<path fill="#FFFFFF" d="M51.176,1.117h6.736v30.18h-6.736L36.798,12.386v18.911h-6.735V1.117h6.304l14.809,19.43V1.117z"/>
	</g>
	<g>
		<g>
			<path fill="#FFFFFF" d="M104.038,18.475l5.354-17.357h7.037l5.312,17.357l6.001-17.357h7.297l-10.535,30.18h-5.009l-6.604-20.983
				l-6.563,20.983h-5.009L90.783,1.117h7.296L104.038,18.475z"/>
		</g>
		<g>
			<path fill="#FFFFFF" stroke="#FFFFFF" stroke-width="2" stroke-miterlimit="10" d="M82.297,17.837
				c-1.738,1.698-3.881,2.548-6.423,2.548c-2.544,0-4.687-0.85-6.425-2.548c-1.739-1.698-2.609-3.811-2.609-6.338
				s0.87-4.64,2.609-6.338c1.739-1.699,3.881-2.548,6.425-2.548c2.542,0,4.685,0.849,6.423,2.548
				c1.739,1.698,2.609,3.811,2.609,6.338S84.036,16.139,82.297,17.837z M80.993,11.511c0-1.534-0.492-2.843-1.477-3.926
				c-0.985-1.083-2.195-1.625-3.632-1.625c-1.436,0-2.646,0.542-3.629,1.625c-0.985,1.083-1.478,2.392-1.478,3.926
				s0.492,2.839,1.478,3.914c0.983,1.075,2.193,1.612,3.629,1.612c1.437,0,2.646-0.538,3.632-1.612
				C80.501,14.35,80.993,13.045,80.993,11.511z"/>
		</g>
		<g>
			<path fill="#FFFFFF" stroke="#FFFFFF" stroke-miterlimit="10" d="M85.055,28.214v1.501H67.85v-1.501H85.055z"/>
		</g>
	</g>
</g>
</svg>
